<svg height="512" viewBox="0 0 512 512" width="512" xmlns="http://www.w3.org/2000/svg"><g id="filled_outline" data-name="filled outline"><path d="m320 184h-128v-24a64 64 0 0 1 64-64 64 64 0 0 1 64 64z" fill="#f3af3e"/><path d="m216 208h-16a16 16 0 0 1 -16-16 16 16 0 0 1 16-16h16z" fill="#eeb58e"/><path d="m296 208h16a16 16 0 0 0 16-16 16 16 0 0 0 -16-16h-16z" fill="#eeb58e"/><g fill="#fdc9a6"><path d="m424 240v40l-16 32-16-32v-40z"/><path d="m448 312h32v104h-32z"/><path d="m336 312h32v104h-32z"/></g><path d="m480 312a32 32 0 0 0 -32-32h-24l-16 24-16-24h-24a32 32 0 0 0 -32 32v8h32a22.627 22.627 0 0 0 0 32v64h80v-64l3.449-5.173a27.6 27.6 0 0 0 2.113-26.827h26.438z" fill="#eea5a9"/><path d="m320 304v112h-128v-112l25.45-10.18 14.55-5.82h48l14.55 5.82z" fill="#dbdbdb"/><path d="m232 256h48v32h-48z" fill="#f6bb92"/><path d="m280 256v9.58a48.07 48.07 0 0 1 -48 0v-9.58z" fill="#eeb58e"/><path d="m184 318.54v97.46h-160v-97.46a38.546 38.546 0 0 1 38.54-38.54h82.92a38.546 38.546 0 0 1 38.54 38.54z" fill="#428dc5"/><path d="m450 248h-84a14 14 0 0 1 -14-14v-50a56 56 0 0 1 56-56 56 56 0 0 1 56 56v50a14 14 0 0 1 -14 14z" fill="#787d82"/><path d="m256 264a48 48 0 0 1 -48-48v-40l24-32 72 32v40a48 48 0 0 1 -48 48z" fill="#f6bb92"/><circle cx="233.5" cy="198.5" fill="#ea9d2d" r="9.5"/><circle cx="278.5" cy="198.5" fill="#ea9d2d" r="9.5"/><path d="m264 240h-16a8 8 0 0 1 0-16h16a8 8 0 0 1 0 16z" fill="#ea9d2d"/><path d="m256 288-32 32-6.55-26.18 14.55-5.82z" fill="#ebebeb"/><path d="m294.55 293.82-6.55 26.18-32-32h24z" fill="#ebebeb"/><path d="m232 312 8 16h32l8-16-24-24z" fill="#428dc5"/><path d="m280 416h-48l6.55-72 1.45-16h32l1.45 16z" fill="#428dc5"/><path d="m192 304v112h-48v-73.5a35.993 35.993 0 0 1 30.08-35.51z" fill="#f6bb92"/><path d="m192 304 8 32-8 24h-48v-17.5a35.993 35.993 0 0 1 30.08-35.51z" fill="#dbdbdb"/><path d="m368 342.5v73.5h-48v-112l17.92 2.99a35.993 35.993 0 0 1 30.08 35.51z" fill="#f6bb92"/><path d="m368 342.5v17.5h-48l-8-24 8-32 17.92 2.99a35.993 35.993 0 0 1 30.08 35.51z" fill="#dbdbdb"/><path d="m424 240v11.72a32.047 32.047 0 0 1 -32 0v-11.72z" fill="#f3c19f"/><path d="m384 216h-16a16 16 0 0 1 -16-16 16 16 0 0 1 16-16h16z" fill="#f3c19f"/><path d="m432 216h16a16 16 0 0 0 16-16 16 16 0 0 0 -16-16h-16z" fill="#f3c19f"/><path d="m24 360h32v56h-32z" fill="#eeb58e"/><path d="m128 280-24 40-24-40h8v-40h32v40z" fill="#eeb58e"/><path d="m72 168a16 16 0 0 1 -16-16v-40l21.086 10.543a51.685 51.685 0 0 0 23.114 5.457h26.189a32.8 32.8 0 0 1 31.82 24.845 32.8 32.8 0 0 1 .343 14.387l-6.552 24.768h-16v-24z" fill="#834b10"/><path d="m137.33 280-25.33 42.22v93.78h-16v-93.78l-25.33-42.22h18.66l14.67 24.45 14.67-24.45z" fill="#277baa"/><path d="m24 336h32v24h-32z" fill="#277baa"/><path d="m80 216h-16a16 16 0 0 1 -16-16 16 16 0 0 1 16-16h16z" fill="#e4ad88"/><path d="m128 216h16a16 16 0 0 0 16-16 16 16 0 0 0 -16-16h-16z" fill="#e4ad88"/><path d="m273.45 344h-34.9l1.45-16h32z" fill="#3e84b9"/><path d="m120 240v11.72a32.047 32.047 0 0 1 -32 0v-11.72z" fill="#e4ad88"/><path d="m104 248a32 32 0 0 1 -32-32v-48h64v48a32 32 0 0 1 -32 32z" fill="#eeb58e"/><path d="m376 184h64a0 0 0 0 1 0 0v32a32 32 0 0 1 -32 32 32 32 0 0 1 -32-32v-32a0 0 0 0 1 0 0z" fill="#fdc9a6"/><circle cx="233.5" cy="198.5" r="9.5"/><circle cx="278.5" cy="198.5" r="9.5"/><path d="m240 232a8 8 0 0 0 8 8h16a8 8 0 0 0 0-16h-16a8 8 0 0 0 -8 8z"/><path d="m448 272h-16v-16h18a22.025 22.025 0 0 0 22-22v-50a64 64 0 0 0 -128 0v50a22.025 22.025 0 0 0 22 22h18v16h-16a40.035 40.035 0 0 0 -37.358 25.665l-8.473-1.414-34.169-13.667v-20.667a55.964 55.964 0 0 0 24-45.917 23.986 23.986 0 0 0 16-41.869v-14.131a72 72 0 0 0 -144 0v14.131a23.986 23.986 0 0 0 16 41.869 55.964 55.964 0 0 0 24 45.917v20.667l-34.168 13.667-3.231.539a46.616 46.616 0 0 0 -41.141-24.79h-17.46v-24.022a40.075 40.075 0 0 0 15.2-23.978h.8a23.981 23.981 0 0 0 18.266-39.542l4.017-15.181c.04-.15.075-.3.107-.454a40.415 40.415 0 0 0 .8-8.023 40.8 40.8 0 0 0 -40.8-40.8h-26.19a43.854 43.854 0 0 1 -19.534-4.616l-21.09-10.54a8 8 0 0 0 -11.576 7.156v40a24.039 24.039 0 0 0 16 22.624v1.376a24 24 0 0 0 0 48h.805a40.075 40.075 0 0 0 15.195 23.978v24.022h-17.46a46.593 46.593 0 0 0 -46.54 46.54v97.46a8 8 0 0 0 8 8h456a8 8 0 0 0 8-8v-104a40.045 40.045 0 0 0 -40-40zm-80-80v16a8 8 0 0 1 0-16zm88 8a8.009 8.009 0 0 1 -8 8v-16a8.009 8.009 0 0 1 8 8zm-24 16a24 24 0 0 1 -48 0v-24h48zm-32 39.2a40.154 40.154 0 0 0 16 0v22.383l-8 12-8-12zm50-15.2h-10.022a39.835 39.835 0 0 0 7.217-16h.805a23.889 23.889 0 0 0 8-1.376v11.376a6.006 6.006 0 0 1 -6 6zm-42-104a48 48 0 0 1 47.52 41.213 23.9 23.9 0 0 0 -7.52-1.213h-80a23.906 23.906 0 0 0 -7.511 1.21 48.067 48.067 0 0 1 47.511-41.21zm-48 98v-11.376a23.889 23.889 0 0 0 8 1.376h.805a39.835 39.835 0 0 0 7.217 16h-10.022a6.006 6.006 0 0 1 -6-6zm-41.316 77.891 17.922 2.991a27.905 27.905 0 0 1 23.394 27.618v9.5h-40a8 8 0 0 0 -8 8v48h-24.695l-7.132-78.457 2.018-4.037.152.151a8 8 0 0 0 13.418-3.716l4.326-17.29 16.942 6.777a7.917 7.917 0 0 0 1.655.463zm9.316 56.109h32v40h-32zm-49.541-72 6.635 2.654-1.426 5.7-8.355-8.354zm-51.553 2.654 6.635-2.654h3.146l-8.355 8.354zm14.828 14.926 14.266-14.266 14.266 14.266-3.21 6.42h-22.112zm70.266-113.58v-16a8 8 0 0 1 0 16zm-112-40a56 56 0 1 1 112 0v8h-6.3l-70.449-31.311a8 8 0 0 0 -9.651 2.511l-21.6 28.8h-4zm-8 32a8.009 8.009 0 0 1 8-8v16a8.009 8.009 0 0 1 -8-8zm24 24v-37.333l18.575-24.767 61.425 27.3v34.8a40 40 0 0 1 -80 0zm40 56a55.823 55.823 0 0 0 16-2.341v10.341h-32v-10.341a55.823 55.823 0 0 0 16 2.341zm-86.463 27.769a43.836 43.836 0 0 0 -33.537 42.731v65.5h-24v-85.783l20.53-34.217h12.93a30.584 30.584 0 0 1 24.077 11.769zm-65.537-59.769a24.028 24.028 0 0 1 -24-24v-40h48v40a24.028 24.028 0 0 1 -24 24zm40-32v-16a8 8 0 0 1 0 16zm-80-83.059 9.508 4.752a59.919 59.919 0 0 0 26.692 6.307h26.19a24.8 24.8 0 0 1 24.8 24.8 24.4 24.4 0 0 1 -.438 4.626l-2.882 10.89a24.088 24.088 0 0 0 -3.87-.316v-8a8 8 0 0 0 -8-8h-64a8.009 8.009 0 0 1 -8-8zm-8 75.059a8.009 8.009 0 0 1 8-8v16a8.009 8.009 0 0 1 -8-8zm48 56a40.028 40.028 0 0 0 8-.805v24.805a7.983 7.983 0 0 0 2.948 6.2l-10.948 18.25-10.949-18.25a7.981 7.981 0 0 0 2.949-6.2v-24.8a40.028 40.028 0 0 0 8 .8zm-41.46 32h12.93l20.53 34.217v85.783h-32v-72a8 8 0 0 0 -8-8h-24v-9.46a30.574 30.574 0 0 1 30.54-30.54zm-30.54 56h16v8h-16zm0 64v-40h16v40zm120-40h32v40h-32zm48-8a8 8 0 0 0 -8-8h-40v-9.5a27.907 27.907 0 0 1 23.4-27.619l17.917-2.989a7.989 7.989 0 0 0 1.656-.464l16.942-6.777 4.326 17.29a8 8 0 0 0 13.418 3.716l.152-.151 2.018 4.037-7.129 78.457h-24.7zm40.761 48 6.545-72h17.388l6.545 72zm135.239-56v-9.5a43.836 43.836 0 0 0 -29.348-41.5 24.058 24.058 0 0 1 21.348-13h19.719l13.625 20.438a8 8 0 0 0 13.312 0l13.625-20.438h19.719a24.028 24.028 0 0 1 24 24h-18.44a8 8 0 0 0 -7.272 11.337 19.483 19.483 0 0 1 -1.488 19.053l-3.45 5.17a8 8 0 0 0 -1.35 4.44v56h-64zm80 56v-53.576l2.106-3.156a35.381 35.381 0 0 0 5.825-23.268h8.069v80z"/></g></svg>